<?xml version="1.0"?>
<svg xmlns="http://www.w3.org/2000/svg" xmlns:xlink="http://www.w3.org/1999/xlink" xmlns:svgjs="http://svgjs.com/svgjs" version="1.1" width="512" height="512" x="0" y="0" viewBox="0 0 512 512" style="enable-background:new 0 0 512 512" xml:space="preserve" class=""><g><g xmlns="http://www.w3.org/2000/svg"><path d="m417 90.75c-8.284 0-15 6.716-15 15s6.716 15 15 15h30c8.284 0 15-6.716 15-15s-6.716-15-15-15z" fill="#524ef9" data-original="#000000" style="" class=""/><path d="m401.479 177.258 29 14c2.103 1.016 4.323 1.496 6.511 1.496 5.576 0 10.933-3.124 13.518-8.482 3.602-7.461.474-16.428-6.986-20.029l-29-14c-7.464-3.605-16.43-.475-20.029 6.986-3.602 7.46-.474 16.427 6.986 20.029z" fill="#524ef9" data-original="#000000" style="" class=""/><path d="m408.011 62.754c2.188 0 4.409-.481 6.511-1.496l29-14c7.46-3.602 10.588-12.568 6.986-20.029-3.602-7.46-12.569-10.587-20.029-6.986l-29 14c-7.46 3.602-10.588 12.568-6.986 20.029 2.586 5.358 7.941 8.482 13.518 8.482z" fill="#524ef9" data-original="#000000" style="" class=""/><path d="m65 120.75h30c8.284 0 15-6.716 15-15s-6.716-15-15-15h-30c-8.284 0-15 6.716-15 15s6.716 15 15 15z" fill="#524ef9" data-original="#000000" style="" class=""/><path d="m97.479 150.242-29 14c-7.46 3.602-10.589 12.568-6.987 20.029 2.587 5.358 7.942 8.482 13.519 8.482 2.187 0 4.409-.481 6.511-1.496l29-14c7.46-3.602 10.588-12.568 6.987-20.029-3.602-7.459-12.569-10.586-20.03-6.986z" fill="#524ef9" data-original="#000000" style="" class=""/><path d="m68.479 47.258 29 14c2.102 1.016 4.323 1.496 6.511 1.496 5.577 0 10.932-3.124 13.519-8.482 3.602-7.461.473-16.428-6.987-20.029l-29-14c-7.461-3.605-16.428-.474-20.03 6.986s-.473 16.427 6.987 20.029z" fill="#524ef9" data-original="#000000" style="" class=""/><path d="m463.481 383.174-60-75c-2.781-4.172-7.465-6.68-12.48-6.68h-120.001v49.541l32.52 48.779c2.781 4.173 7.465 6.68 12.48 6.68h135c5.532 0 10.615-3.045 13.226-7.922 2.609-4.878 2.323-10.796-.745-15.398z" fill="#524ef9" data-original="#000000" style="" class=""/><path d="m108.519 308.174-60 75c-3.068 4.603-3.354 10.521-.745 15.398 2.611 4.877 7.694 7.922 13.226 7.922h135c5.015 0 9.699-2.507 12.481-6.68l32.519-48.779v-49.541h-120c-5.015 0-9.699 2.508-12.481 6.68z" fill="#524ef9" data-original="#000000" style="" class=""/><path d="m278.556 416.452-7.556-11.333v106.881h120c8.284 0 15-6.716 15-15v-60.506h-90c-15.082 0-29.08-7.492-37.444-20.042z" fill="#524ef9" data-original="#000000" style="" class=""/><path d="m196 436.494h-90v60.506c0 8.284 6.716 15 15 15h120v-106.881l-7.558 11.336c-8.367 12.549-22.363 20.039-37.442 20.039z" fill="#524ef9" data-original="#000000" style="" class=""/><path d="m199.783 228.739h112.435v42.755h-112.435z" fill="#524ef9" data-original="#000000" style="" class=""/><path d="m199.782 198.739h112.437c.011-6.657 4.546-12.5 12.556-22.243 12.792-15.559 30.31-36.867 30.31-77.413-.001-54.634-44.449-99.083-99.085-99.083-54.635 0-99.084 44.449-99.084 99.083 0 40.546 17.518 61.854 30.309 77.413 8.011 9.743 12.546 15.586 12.557 22.243zm23.709-78.917c4.595-6.895 13.908-8.755 20.801-4.16l11.708 7.805 11.707-7.805c6.891-4.595 16.205-2.733 20.801 4.16 4.596 6.892 2.733 16.206-4.16 20.801l-20.027 13.352c-2.518 1.68-5.42 2.52-8.32 2.52s-5.801-.84-8.32-2.52l-20.028-13.352c-6.894-4.595-8.757-13.908-4.162-20.801z" fill="#524ef9" data-original="#000000" style="" class=""/></g></g></svg>
